<svg width="16" height="16" viewBox="0 0 16 16" fill="none" xmlns="http://www.w3.org/2000/svg">
<path d="M3.98123 7.23869H2.13623V7.78619H3.44498C3.37998 8.55369 2.74123 8.88119 2.13873 8.88119C1.75085 8.88119 1.37886 8.7271 1.10458 8.45283C0.830313 8.17856 0.676228 7.80657 0.676228 7.41869C0.676228 7.03081 0.830313 6.65882 1.10458 6.38455C1.37886 6.11027 1.75085 5.95619 2.13873 5.95619C2.50638 5.95562 2.85992 6.09766 3.12498 6.35244L3.50873 5.95494C3.13799 5.59669 2.64047 5.39984 2.12498 5.40744C1.86086 5.40933 1.59969 5.46322 1.3564 5.56604C1.11311 5.66886 0.892447 5.81859 0.70702 6.00668C0.521593 6.19478 0.37503 6.41756 0.275699 6.6623C0.176369 6.90704 0.126215 7.16894 0.128103 7.43306C0.129991 7.69718 0.183883 7.95835 0.286702 8.20164C0.38952 8.44494 0.539253 8.66559 0.727349 8.85102C0.915446 9.03645 1.13822 9.18301 1.38296 9.28234C1.6277 9.38167 1.88961 9.43183 2.15373 9.42994C3.22998 9.42994 4.01873 8.69244 4.01873 7.60119C4.02109 7.47947 4.00977 7.35788 3.98498 7.23869H3.98123ZM5.49248 6.84244C5.23727 6.84343 4.98808 6.91995 4.77629 7.06235C4.56451 7.20475 4.39962 7.40666 4.30242 7.64263C4.20521 7.87859 4.18004 8.13806 4.23007 8.38831C4.2801 8.63856 4.40309 8.86841 4.58355 9.04886C4.76401 9.22932 4.99385 9.35232 5.24411 9.40235C5.49436 9.45238 5.75382 9.42721 5.98979 9.33C6.22576 9.23279 6.42767 9.06791 6.57007 8.85612C6.71247 8.64434 6.78899 8.39514 6.78998 8.13994C6.79268 7.9688 6.76096 7.79887 6.69671 7.64023C6.63246 7.48159 6.53699 7.33748 6.41597 7.21645C6.29494 7.09542 6.15083 6.99995 5.99219 6.9357C5.83355 6.87145 5.66361 6.83974 5.49248 6.84244ZM5.49998 7.34994C5.65728 7.34067 5.81374 7.37888 5.94907 7.45962C6.08439 7.54036 6.19233 7.65989 6.25889 7.80272C6.32545 7.94556 6.34756 8.10509 6.32234 8.26064C6.29713 8.41619 6.22576 8.56057 6.11748 8.67506C6.00921 8.78955 5.86904 8.86887 5.71514 8.90272C5.56124 8.93657 5.40072 8.9234 5.2544 8.86491C5.10807 8.80643 4.9827 8.70532 4.89454 8.57471C4.80638 8.4441 4.7595 8.29002 4.75998 8.13244C4.75473 8.03187 4.76996 7.93129 4.80475 7.83678C4.83953 7.74228 4.89314 7.65582 4.96234 7.58265C5.03153 7.50949 5.11486 7.45113 5.20728 7.41113C5.2997 7.37113 5.39928 7.35031 5.49998 7.34994ZM8.31998 6.84244C8.06472 6.84318 7.8154 6.91949 7.60345 7.06174C7.3915 7.20399 7.22642 7.40582 7.12902 7.64176C7.03163 7.87771 7.00628 8.13721 7.05617 8.38755C7.10606 8.63789 7.22895 8.86785 7.40936 9.04843C7.58977 9.22901 7.81961 9.35213 8.0699 9.40226C8.32019 9.45239 8.57971 9.42729 8.81575 9.33012C9.0518 9.23295 9.25378 9.06807 9.39624 8.85626C9.53869 8.64445 9.61524 8.3952 9.61623 8.13994C9.61892 7.96891 9.58725 7.79908 9.52308 7.64053C9.4589 7.48197 9.36354 7.33791 9.24265 7.21691C9.12176 7.0959 8.9778 7.0004 8.8193 6.93607C8.66081 6.87175 8.49101 6.83991 8.31998 6.84244ZM8.32748 7.34994C8.48478 7.34067 8.64124 7.37888 8.77657 7.45962C8.91189 7.54036 9.01983 7.65989 9.08639 7.80272C9.15295 7.94556 9.17506 8.10509 9.14984 8.26064C9.12463 8.41619 9.05326 8.56057 8.94498 8.67506C8.83671 8.78955 8.69654 8.86887 8.54264 8.90272C8.38874 8.93657 8.22822 8.9234 8.08189 8.86491C7.93557 8.80643 7.8102 8.70532 7.72204 8.57471C7.63388 8.4441 7.587 8.29002 7.58748 8.13244C7.58223 8.03187 7.59746 7.93129 7.63225 7.83678C7.66703 7.74228 7.72064 7.65582 7.78984 7.58265C7.85903 7.50949 7.94236 7.45113 8.03478 7.41113C8.1272 7.37113 8.22678 7.35031 8.32748 7.34994ZM11.0912 6.84369C10.3962 6.84369 9.84998 7.45244 9.84998 8.13494C9.84486 8.46846 9.97064 8.7907 10.2003 9.03256C10.43 9.27442 10.7454 9.41663 11.0787 9.42869C11.2132 9.43602 11.3476 9.41141 11.4708 9.35688C11.5939 9.30235 11.7025 9.21944 11.7875 9.11494V9.36494C11.7875 9.81119 11.5162 10.0774 11.1075 10.0774C10.9649 10.0763 10.826 10.0326 10.7084 9.95196C10.5908 9.87134 10.5 9.75748 10.4475 9.62494L9.94748 9.83244C10.0442 10.0601 10.2063 10.254 10.4132 10.3895C10.6201 10.525 10.8626 10.5961 11.11 10.5937C11.8012 10.5937 12.3275 10.1587 12.3275 9.24619V6.92119H11.7887V7.13994C11.7004 7.0436 11.5924 6.96731 11.4721 6.91621C11.3518 6.86511 11.2219 6.84038 11.0912 6.84369ZM11.1412 7.34994C11.4825 7.34994 11.8312 7.64119 11.8312 8.13744C11.8312 8.63369 11.4825 8.92119 11.1337 8.92119C11.0351 8.91868 10.938 8.89635 10.8482 8.85551C10.7584 8.81468 10.6777 8.75619 10.611 8.68352C10.5443 8.61085 10.4929 8.52549 10.4598 8.43253C10.4268 8.33957 10.4128 8.24092 10.4187 8.14244C10.4187 7.64244 10.7762 7.34994 11.1412 7.34994ZM14.7412 6.83994C14.0862 6.83994 13.535 7.36119 13.535 8.13119C13.5285 8.30088 13.5567 8.47012 13.6178 8.62857C13.6789 8.78702 13.7716 8.93135 13.8903 9.05277C14.0091 9.17419 14.1513 9.27014 14.3083 9.33477C14.4654 9.3994 14.6339 9.43136 14.8037 9.42869C15.0167 9.42911 15.2265 9.37766 15.4151 9.27878C15.6038 9.1799 15.7654 9.03657 15.8862 8.86119L15.4387 8.56369C15.3739 8.6737 15.2811 8.7646 15.1698 8.82716C15.0585 8.88973 14.9327 8.92174 14.805 8.91994C14.6724 8.92542 14.5411 8.89109 14.4282 8.82136C14.3152 8.75163 14.2258 8.6497 14.1712 8.52869L15.905 7.80994L15.815 7.59869C15.7323 7.37924 15.5857 7.18968 15.394 7.05461C15.2023 6.91954 14.9744 6.84518 14.74 6.84119L14.7412 6.83994ZM14.7637 7.33994C14.8615 7.33572 14.9585 7.35947 15.0433 7.40839C15.1281 7.45732 15.1972 7.5294 15.2425 7.61619L14.085 8.09994C14.0792 8.00538 14.0923 7.91062 14.1234 7.82113C14.1544 7.73164 14.2029 7.64918 14.266 7.57853C14.3291 7.50787 14.4056 7.45041 14.491 7.40946C14.5764 7.36851 14.6691 7.34488 14.7637 7.33994ZM12.7087 9.35244H13.2787V5.54119H12.7087V9.35244Z" fill="black"/>
</svg>
