<svg width="25" height="25" viewBox="0 0 25 25" fill="none" xmlns="http://www.w3.org/2000/svg">
<path fill-rule="evenodd" clip-rule="evenodd" d="M12.4995 2.99072C7.11525 2.99072 2.75 7.35622 2.75 12.7412C2.75 17.049 5.543 20.7035 9.41775 21.992C9.90575 22.0822 10.0833 21.782 10.0833 21.5227C10.0833 21.2917 10.0748 20.679 10.0705 19.8645C7.35825 20.4542 6.786 18.5572 6.786 18.5572C6.3425 17.431 5.70325 17.1315 5.70325 17.1315C4.818 16.527 5.7705 16.5387 5.7705 16.5387C6.749 16.608 7.264 17.5432 7.264 17.5432C8.1335 19.0332 9.54625 18.602 10.1015 18.354C10.1897 17.7227 10.4422 17.294 10.7205 17.0497C8.55575 16.8037 6.27975 15.9672 6.27975 12.2312C6.27975 11.1665 6.6595 10.296 7.283 9.61422C7.18325 9.36872 6.848 8.37747 7.37875 7.03447C7.37875 7.03447 8.19725 6.77247 10.0603 8.03472C10.8375 7.81747 11.6718 7.70897 12.501 7.70572C13.329 7.70922 14.1635 7.81747 14.9417 8.03472C16.8035 6.77247 17.6208 7.03447 17.6208 7.03447C18.1528 8.37747 17.8178 9.36872 17.7178 9.61422C18.3428 10.296 18.7197 11.1665 18.7197 12.2312C18.7197 15.976 16.4405 16.801 14.2685 17.0415C14.618 17.3427 14.93 17.939 14.93 18.8487C14.93 20.1515 14.9183 21.2027 14.9183 21.5225C14.9183 21.7837 15.0935 22.0875 15.5885 21.9907C19.459 20.6995 22.25 17.0477 22.25 12.7412C22.25 7.35622 17.8848 2.99072 12.4995 2.99072Z" fill="black"/>
</svg>
