<svg width="16" height="16" viewBox="0 0 16 16" fill="none" xmlns="http://www.w3.org/2000/svg">
<g clip-path="url(#clip0_1830_9859)">
<path d="M14.942 12.57L10 4.335V1H10.5C10.775 1 11 0.775 11 0.5C11 0.225 10.775 0 10.5 0H5.50002C5.22502 0 5.00002 0.225 5.00002 0.5C5.00002 0.775 5.22502 1 5.50002 1H6.00002V4.335L1.05802 12.57C-0.073976 14.456 0.800024 16 3.00002 16H13C15.2 16 16.074 14.457 14.942 12.57ZM3.76602 10L7.00002 4.61V1H9.00002V4.61L12.234 10H3.76602Z" fill="black"/>
</g>
<defs>
<clipPath id="clip0_1830_9859">
<rect width="16" height="16" fill="white"/>
</clipPath>
</defs>
</svg>
