<svg width="28" height="28" viewBox="0 0 28 28" fill="none" xmlns="http://www.w3.org/2000/svg">
<path d="M19.5 12.0864C20.042 12.0864 20.4745 12.3279 20.6995 12.5939H20.7335V12.2669H21.6805V16.3139C21.6805 17.9939 20.689 18.6849 19.517 18.6849C18.4135 18.6849 17.749 17.9424 17.5005 17.3394L18.369 16.9784C18.526 17.3494 18.904 17.7889 19.517 17.7889C20.27 17.7889 20.7335 17.3224 20.7335 16.4504V16.1234H20.6995C20.4745 16.3959 20.045 16.6409 19.5 16.6409C18.3625 16.6409 17.32 15.6494 17.32 14.3719C17.32 13.0879 18.3625 12.0864 19.5 12.0864ZM25.898 12.0894C26.9535 12.0894 27.528 12.8394 27.773 13.3609L27.825 13.4814L27.949 13.7964L24.9035 15.0564C25.135 15.5134 25.496 15.7449 26.007 15.7449C26.518 15.7449 26.872 15.4929 27.128 15.1149L27.9045 15.6324L27.8345 15.7304C27.549 16.1054 26.9625 16.6409 26.007 16.6409C24.712 16.6409 23.7485 15.6394 23.7485 14.3654C23.7485 13.0094 24.722 12.0894 25.898 12.0894ZM14.6285 12.0894C15.8825 12.0894 16.9045 13.0434 16.9045 14.3654C16.9045 15.6769 15.8825 16.6409 14.629 16.6409C13.3755 16.6409 12.353 15.6769 12.353 14.3654C12.353 13.0469 13.375 12.0894 14.6285 12.0894ZM9.65903 12.0759C10.9125 12.0759 11.9345 13.0369 11.9345 14.3549C11.9345 15.6669 10.9125 16.6309 9.65903 16.6309C8.40553 16.6309 7.38353 15.6634 7.38353 14.3549C7.38353 13.0369 8.40553 12.0759 9.65903 12.0759ZM3.64153 9.51392C4.66753 9.51392 5.41653 9.89542 5.98553 10.4094L6.07403 10.4919L5.38903 11.1769C4.97403 10.7884 4.41153 10.4849 3.64153 10.4849C2.21403 10.4849 1.09653 11.6364 1.09653 13.0639C1.09653 14.4914 2.21403 15.6429 3.64153 15.6429C4.56853 15.6429 5.09653 15.2714 5.43003 14.9344C5.68503 14.6794 5.86403 14.3144 5.94403 13.7934L5.96153 13.6599H3.64153V12.7129H6.89853C6.92903 12.8869 6.95653 13.1219 6.95653 13.3499C6.95653 14.0789 6.75903 14.9784 6.11853 15.6189C5.49503 16.2664 4.69753 16.6139 3.64153 16.6139C1.68653 16.6139 0.0405273 15.0194 0.0405273 13.0639C0.0405273 11.1084 1.68603 9.51392 3.64153 9.51392ZM23.2615 9.76942V16.4334H22.28V9.76942H23.2615ZM14.625 12.9854C13.937 12.9854 13.344 13.5479 13.344 14.3654C13.344 15.1759 13.937 15.7454 14.625 15.7454C15.3165 15.7454 15.906 15.1729 15.906 14.3654C15.906 13.5479 15.313 12.9854 14.625 12.9854ZM19.585 12.9819C18.897 12.9819 18.318 13.5679 18.318 14.3719C18.318 15.1659 18.897 15.7419 19.5855 15.7419C20.2665 15.7449 20.8015 15.1659 20.8015 14.3719C20.8015 13.5679 20.2665 12.9819 19.5855 12.9819M9.65853 12.9754C8.97053 12.9754 8.37753 13.5374 8.37753 14.3554C8.37753 15.1659 8.97053 15.7349 9.65853 15.7349C10.3465 15.7349 10.9395 15.1659 10.9395 14.3549C10.9395 13.5374 10.3465 12.9754 9.65853 12.9754ZM25.929 12.9649C25.4215 12.9649 24.7165 13.4144 24.74 14.2934L26.774 13.4484C26.6615 13.1654 26.328 12.9649 25.929 12.9649Z" fill="black"/>
</svg>
