<svg width="24" height="24" viewBox="0 0 24 24" fill="none" xmlns="http://www.w3.org/2000/svg">
<path d="M14.8279 12L16.2429 13.414L19.0709 10.5861C19.8211 9.83589 20.2425 8.81844 20.2425 7.75755C20.2425 6.69666 19.8211 5.67921 19.0709 4.92905C18.6995 4.55761 18.2585 4.26296 17.7732 4.06194C17.2879 3.86091 16.7677 3.75745 16.2424 3.75745C15.1815 3.75745 14.1641 4.17888 13.4139 4.92905L10.5859 7.75705L11.9999 9.17205L14.8279 6.34305C15.2031 5.9679 15.7119 5.75714 16.2424 5.75714C16.773 5.75714 17.2818 5.9679 17.6569 6.34305C18.0321 6.7182 18.2428 7.22701 18.2428 7.75755C18.2428 8.28809 18.0321 8.7969 17.6569 9.17205L14.8279 12ZM11.9999 14.8291L13.4139 16.243L10.5859 19.071C9.83576 19.8212 8.81832 20.2427 7.75743 20.2427C6.69653 20.2427 5.67909 19.8212 4.92893 19.071C4.17876 18.3209 3.75732 17.3034 3.75732 16.2425C3.75732 15.1817 4.17876 14.1642 4.92893 13.414L7.75693 10.5861L9.17193 12L6.34293 14.8291C5.96791 15.2042 5.75728 15.713 5.75738 16.2434C5.75747 16.7738 5.96828 17.2825 6.34343 17.6575C6.71858 18.0326 7.22733 18.2432 7.75778 18.2431C8.28823 18.243 8.79691 18.0322 9.17193 17.657L11.9999 14.8291Z" fill="black"/>
<path d="M14.829 10.5861C15.0166 10.3985 15.122 10.144 15.122 9.87861C15.122 9.61324 15.0166 9.35875 14.829 9.17111C14.6413 8.98347 14.3869 8.87805 14.1215 8.87805C13.8561 8.87805 13.6016 8.98347 13.414 9.17111L9.17199 13.4141C9.07648 13.5064 9.0003 13.6167 8.94789 13.7387C8.89548 13.8607 8.86789 13.9919 8.86674 14.1247C8.86558 14.2575 8.89088 14.3892 8.94117 14.5121C8.99145 14.635 9.0657 14.7466 9.15959 14.8405C9.25348 14.9344 9.36514 15.0086 9.48803 15.0589C9.61093 15.1092 9.74261 15.1345 9.87539 15.1334C10.0082 15.1322 10.1394 15.1046 10.2614 15.0522C10.3834 14.9998 10.4937 14.9236 10.586 14.8281L14.829 10.5861Z" fill="black"/>
</svg>
