<svg width="24" height="24" viewBox="0 0 24 24" fill="none" xmlns="http://www.w3.org/2000/svg">
<path d="M8.50022 14.5001H15.5002M8.50022 9.50006H12.0002M14.1702 20.8901C18.3542 20.6131 21.6862 17.2331 21.9602 12.9901C22.0132 12.1601 22.0132 11.3001 21.9602 10.4701C21.6862 6.22806 18.3542 2.85006 14.1702 2.57106C12.7251 2.47583 11.2753 2.47583 9.83022 2.57106C5.64622 2.84906 2.31422 6.22806 2.04022 10.4711C1.98725 11.3102 1.98725 12.1519 2.04022 12.9911C2.14022 14.5361 2.82322 15.9671 3.62822 17.1751C4.09522 18.0201 3.78722 19.0751 3.30022 19.9981C2.95022 20.6631 2.77422 20.9951 2.91522 21.2351C3.05522 21.4751 3.37022 21.4831 3.99922 21.4981C5.24422 21.5281 6.08322 21.1761 6.74922 20.6851C7.12622 20.4061 7.31522 20.2671 7.44522 20.2511C7.57522 20.2351 7.83222 20.3411 8.34422 20.5511C8.80422 20.7411 9.33922 20.8581 9.82922 20.8911C11.2542 20.9851 12.7432 20.9851 14.1712 20.8911" stroke="black" stroke-width="1.5" stroke-linecap="round" stroke-linejoin="round"/>
</svg>
