<svg width="16" height="16" viewBox="0 0 16 16" fill="none" xmlns="http://www.w3.org/2000/svg">
<path fill-rule="evenodd" clip-rule="evenodd" d="M3.6665 8C3.6665 7.44772 3.21879 7 2.6665 7C2.11422 7 1.6665 7.44772 1.6665 8C1.6665 8.55228 2.11422 9 2.6665 9C3.21879 9 3.6665 8.55228 3.6665 8ZM14.3332 8C14.3332 7.44772 13.8854 7 13.3332 7C12.7809 7 12.3332 7.44772 12.3332 8C12.3332 8.55228 12.7809 9 13.3332 9C13.8854 9 14.3332 8.55228 14.3332 8ZM8.99985 8C8.99985 7.44772 8.55213 7 7.99985 7C7.44757 7 6.99985 7.44772 6.99985 8C6.99985 8.55228 7.44757 9 7.99985 9C8.55213 9 8.99985 8.55228 8.99985 8Z" fill="black"/>
</svg>
