<svg width="24" height="24" viewBox="0 0 24 24" fill="none" xmlns="http://www.w3.org/2000/svg">
<path d="M2.89994 2.30003L21.7049 8.56803C21.8023 8.60029 21.8873 8.6617 21.9486 8.74393C22.0099 8.82616 22.0443 8.92524 22.0474 9.02773C22.0505 9.13023 22.0219 9.23118 21.9657 9.31692C21.9094 9.40265 21.8282 9.46902 21.7329 9.50703L12.9999 13L8.57494 21.85C8.52991 21.9401 8.45871 22.0146 8.37067 22.0635C8.28262 22.1125 8.18184 22.1337 8.08153 22.1244C7.98121 22.1151 7.88605 22.0757 7.8085 22.0114C7.73095 21.9471 7.67464 21.8609 7.64694 21.764L2.26094 2.91203C2.23596 2.82459 2.23529 2.732 2.25901 2.64422C2.28274 2.55643 2.32995 2.47678 2.39557 2.41383C2.4612 2.35088 2.54275 2.30702 2.63144 2.28697C2.72014 2.26691 2.81262 2.27143 2.89894 2.30003" fill="black"/>
</svg>
