<svg width="24" height="24" viewBox="0 0 24 24" fill="none" xmlns="http://www.w3.org/2000/svg">
<path d="M5 22V14M5 14V4M5 14L7.47 13.506C9.12082 13.177 10.8316 13.3341 12.395 13.958C14.0886 14.635 15.9525 14.7613 17.722 14.319L17.936 14.266C18.2398 14.1902 18.5096 14.0149 18.7024 13.7681C18.8952 13.5213 19 13.2172 19 12.904V5.537C18.9999 5.35477 18.9584 5.17494 18.8784 5.01117C18.7985 4.84739 18.6824 4.70397 18.5387 4.59178C18.3951 4.4796 18.2279 4.40159 18.0496 4.36368C17.8714 4.32577 17.6868 4.32896 17.51 4.373C15.8786 4.78057 14.1602 4.6637 12.599 4.039L12.395 3.958C10.8319 3.33426 9.1215 3.17725 7.471 3.506L5 4M5 4V2" stroke="black" stroke-width="1.5" stroke-linecap="round"/>
</svg>
